<?xml version="1.0" encoding="UTF-8" standalone="no"?>
<!DOCTYPE svg PUBLIC "-//W3C//DTD SVG 1.1//EN"
 "http://www.w3.org/Graphics/SVG/1.1/DTD/svg11.dtd">
<!-- Generated by graphviz version 2.47.1 (0)
 -->
<!-- Pages: 1 -->
<svg width="260pt" height="349pt"
 viewBox="0.00 0.00 260.00 348.91" xmlns="http://www.w3.org/2000/svg" xmlns:xlink="http://www.w3.org/1999/xlink">
<g id="graph0" class="graph" transform="scale(1 1) rotate(0) translate(4 344.91)">
<polygon fill="white" stroke="transparent" points="-4,4 -4,-344.91 256,-344.91 256,4 -4,4"/>
<g id="clust1" class="cluster">
<title>cluster3</title>
<path fill="none" stroke="black" d="M20,-218.95C20,-218.95 232,-218.95 232,-218.95 238,-218.95 244,-224.95 244,-230.95 244,-230.95 244,-320.91 244,-320.91 244,-326.91 238,-332.91 232,-332.91 232,-332.91 20,-332.91 20,-332.91 14,-332.91 8,-326.91 8,-320.91 8,-320.91 8,-230.95 8,-230.95 8,-224.95 14,-218.95 20,-218.95"/>
<text text-anchor="middle" x="232" y="-226.75" font-family="Times,serif" font-size="14.00">3</text>
</g>
<g id="clust2" class="cluster">
<title>cluster468</title>
<path fill="none" stroke="black" d="M136,-8C136,-8 222,-8 222,-8 228,-8 234,-14 234,-20 234,-20 234,-198.95 234,-198.95 234,-204.95 228,-210.95 222,-210.95 222,-210.95 136,-210.95 136,-210.95 130,-210.95 124,-204.95 124,-198.95 124,-198.95 124,-20 124,-20 124,-14 130,-8 136,-8"/>
<text text-anchor="middle" x="215" y="-15.8" font-family="Times,serif" font-size="14.00">468</text>
</g>
<!-- σ -->
<g id="node1" class="node">
<title>σ</title>
<ellipse fill="none" stroke="black" cx="75" cy="-287.43" rx="59.29" ry="37.45"/>
<text text-anchor="middle" x="75" y="-298.73" font-family="Times,serif" font-size="14.00">σ</text>
<text text-anchor="middle" x="75" y="-283.73" font-family="Times,serif" font-size="14.00">~</text>
<text text-anchor="middle" x="75" y="-268.73" font-family="Times,serif" font-size="14.00">HalfNormal</text>
</g>
<!-- sales -->
<g id="node3" class="node">
<title>sales</title>
<ellipse fill="lightgrey" stroke="black" cx="176" cy="-76.48" rx="41.94" ry="37.45"/>
<text text-anchor="middle" x="176" y="-87.78" font-family="Times,serif" font-size="14.00">sales</text>
<text text-anchor="middle" x="176" y="-72.78" font-family="Times,serif" font-size="14.00">~</text>
<text text-anchor="middle" x="176" y="-57.78" font-family="Times,serif" font-size="14.00">Normal</text>
</g>
<!-- σ&#45;&gt;sales -->
<g id="edge2" class="edge">
<title>σ&#45;&gt;sales</title>
<path fill="none" stroke="black" d="M84.99,-250.23C93.47,-222.04 106.97,-182.38 124,-149.95 130.14,-138.27 137.95,-126.33 145.64,-115.61"/>
<polygon fill="black" stroke="black" points="148.65,-117.42 151.75,-107.29 143.01,-113.28 148.65,-117.42"/>
</g>
<!-- β -->
<g id="node2" class="node">
<title>β</title>
<ellipse fill="none" stroke="black" cx="194" cy="-287.43" rx="41.94" ry="37.45"/>
<text text-anchor="middle" x="194" y="-298.73" font-family="Times,serif" font-size="14.00">β</text>
<text text-anchor="middle" x="194" y="-283.73" font-family="Times,serif" font-size="14.00">~</text>
<text text-anchor="middle" x="194" y="-268.73" font-family="Times,serif" font-size="14.00">Normal</text>
</g>
<!-- μ -->
<g id="node4" class="node">
<title>μ</title>
<polygon fill="none" stroke="black" points="225.5,-202.95 132.5,-202.95 132.5,-149.95 225.5,-149.95 225.5,-202.95"/>
<text text-anchor="middle" x="179" y="-187.75" font-family="Times,serif" font-size="14.00">μ</text>
<text text-anchor="middle" x="179" y="-172.75" font-family="Times,serif" font-size="14.00">~</text>
<text text-anchor="middle" x="179" y="-157.75" font-family="Times,serif" font-size="14.00">Deterministic</text>
</g>
<!-- β&#45;&gt;μ -->
<g id="edge1" class="edge">
<title>β&#45;&gt;μ</title>
<path fill="none" stroke="black" d="M189.01,-250.14C187.37,-238.27 185.56,-225.09 183.93,-213.25"/>
<polygon fill="black" stroke="black" points="187.38,-212.68 182.55,-203.25 180.45,-213.64 187.38,-212.68"/>
</g>
<!-- μ&#45;&gt;sales -->
<g id="edge3" class="edge">
<title>μ&#45;&gt;sales</title>
<path fill="none" stroke="black" d="M178.21,-149.71C177.97,-141.89 177.7,-133.03 177.43,-124.27"/>
<polygon fill="black" stroke="black" points="180.93,-123.99 177.12,-114.1 173.93,-124.2 180.93,-123.99"/>
</g>
</g>
</svg>