<?xml version="1.0" encoding="UTF-8" standalone="no"?>
<!DOCTYPE svg PUBLIC "-//W3C//DTD SVG 1.1//EN"
 "http://www.w3.org/Graphics/SVG/1.1/DTD/svg11.dtd">
<!-- Generated by graphviz version 2.42.3 (20191010.1750)
 -->
<!-- Title: %3 Pages: 1 -->
<svg width="136pt" height="233pt"
 viewBox="0.00 0.00 136.00 232.91" xmlns="http://www.w3.org/2000/svg" xmlns:xlink="http://www.w3.org/1999/xlink">
<g id="graph0" class="graph" transform="scale(1 1) rotate(0) translate(4 228.91)">
<title>%3</title>
<polygon fill="white" stroke="transparent" points="-4,4 -4,-228.91 132,-228.91 132,4 -4,4"/>
<g id="clust1" class="cluster">
<title>cluster20</title>
<path fill="none" stroke="black" d="M20,-8C20,-8 108,-8 108,-8 114,-8 120,-14 120,-20 120,-20 120,-109.95 120,-109.95 120,-115.95 114,-121.95 108,-121.95 108,-121.95 20,-121.95 20,-121.95 14,-121.95 8,-115.95 8,-109.95 8,-109.95 8,-20 8,-20 8,-14 14,-8 20,-8"/>
<text text-anchor="middle" x="105" y="-15.8" font-family="Times,serif" font-size="14.00">20</text>
</g>
<!-- θ -->
<g id="node1" class="node">
<title>θ</title>
<ellipse fill="none" stroke="black" cx="64" cy="-187.43" rx="28.98" ry="37.45"/>
<text text-anchor="middle" x="64" y="-198.73" font-family="Times,serif" font-size="14.00">θ</text>
<text text-anchor="middle" x="64" y="-183.73" font-family="Times,serif" font-size="14.00">~</text>
<text text-anchor="middle" x="64" y="-168.73" font-family="Times,serif" font-size="14.00">Beta</text>
</g>
<!-- y_obs -->
<g id="node2" class="node">
<title>y_obs</title>
<ellipse fill="lightgrey" stroke="black" cx="64" cy="-76.48" rx="48.17" ry="37.45"/>
<text text-anchor="middle" x="64" y="-87.78" font-family="Times,serif" font-size="14.00">y_obs</text>
<text text-anchor="middle" x="64" y="-72.78" font-family="Times,serif" font-size="14.00">~</text>
<text text-anchor="middle" x="64" y="-57.78" font-family="Times,serif" font-size="14.00">Binomial</text>
</g>
<!-- θ&#45;&gt;y_obs -->
<g id="edge1" class="edge">
<title>θ&#45;&gt;y_obs</title>
<path fill="none" stroke="black" d="M64,-149.85C64,-141.67 64,-132.89 64,-124.37"/>
<polygon fill="black" stroke="black" points="67.5,-124.15 64,-114.15 60.5,-124.15 67.5,-124.15"/>
</g>
</g>
</svg>
