<?xml version="1.0" encoding="UTF-8" standalone="no"?>
<!DOCTYPE svg PUBLIC "-//W3C//DTD SVG 1.1//EN"
 "http://www.w3.org/Graphics/SVG/1.1/DTD/svg11.dtd">
<!-- Generated by graphviz version 2.47.1 (0)
 -->
<!-- Pages: 1 -->
<svg width="254pt" height="344pt"
 viewBox="0.00 0.00 254.40 343.86" xmlns="http://www.w3.org/2000/svg" xmlns:xlink="http://www.w3.org/1999/xlink">
<g id="graph0" class="graph" transform="scale(1 1) rotate(0) translate(4 339.86)">
<polygon fill="white" stroke="transparent" points="-4,4 -4,-339.86 250.4,-339.86 250.4,4 -4,4"/>
<g id="clust1" class="cluster">
<title>cluster468</title>
<path fill="none" stroke="black" d="M140.4,-8C140.4,-8 226.4,-8 226.4,-8 232.4,-8 238.4,-14 238.4,-20 238.4,-20 238.4,-209.93 238.4,-209.93 238.4,-215.93 232.4,-221.93 226.4,-221.93 226.4,-221.93 140.4,-221.93 140.4,-221.93 134.4,-221.93 128.4,-215.93 128.4,-209.93 128.4,-209.93 128.4,-20 128.4,-20 128.4,-14 134.4,-8 140.4,-8"/>
<text text-anchor="middle" x="219.4" y="-15.8" font-family="Times,serif" font-size="14.00">468</text>
</g>
<!-- σ -->
<g id="node1" class="node">
<title>σ</title>
<ellipse fill="none" stroke="black" cx="59.4" cy="-187.43" rx="59.29" ry="37.45"/>
<text text-anchor="middle" x="59.4" y="-198.73" font-family="Times,serif" font-size="14.00">σ</text>
<text text-anchor="middle" x="59.4" y="-183.73" font-family="Times,serif" font-size="14.00">~</text>
<text text-anchor="middle" x="59.4" y="-168.73" font-family="Times,serif" font-size="14.00">HalfNormal</text>
</g>
<!-- sales -->
<g id="node3" class="node">
<title>sales</title>
<ellipse fill="lightgrey" stroke="black" cx="180.4" cy="-76.48" rx="41.94" ry="37.45"/>
<text text-anchor="middle" x="180.4" y="-87.78" font-family="Times,serif" font-size="14.00">sales</text>
<text text-anchor="middle" x="180.4" y="-72.78" font-family="Times,serif" font-size="14.00">~</text>
<text text-anchor="middle" x="180.4" y="-57.78" font-family="Times,serif" font-size="14.00">Normal</text>
</g>
<!-- σ&#45;&gt;sales -->
<g id="edge2" class="edge">
<title>σ&#45;&gt;sales</title>
<path fill="none" stroke="black" d="M92.78,-156.37C108.53,-142.19 127.37,-125.22 143.54,-110.66"/>
<polygon fill="black" stroke="black" points="146.15,-113.03 151.24,-103.73 141.46,-107.82 146.15,-113.03"/>
</g>
<!-- β -->
<g id="node2" class="node">
<title>β</title>
<ellipse fill="none" stroke="black" cx="183.4" cy="-298.38" rx="41.94" ry="37.45"/>
<text text-anchor="middle" x="183.4" y="-309.68" font-family="Times,serif" font-size="14.00">β</text>
<text text-anchor="middle" x="183.4" y="-294.68" font-family="Times,serif" font-size="14.00">~</text>
<text text-anchor="middle" x="183.4" y="-279.68" font-family="Times,serif" font-size="14.00">Normal</text>
</g>
<!-- μ -->
<g id="node4" class="node">
<title>μ</title>
<polygon fill="none" stroke="black" points="229.9,-213.93 136.9,-213.93 136.9,-160.93 229.9,-160.93 229.9,-213.93"/>
<text text-anchor="middle" x="183.4" y="-198.73" font-family="Times,serif" font-size="14.00">μ</text>
<text text-anchor="middle" x="183.4" y="-183.73" font-family="Times,serif" font-size="14.00">~</text>
<text text-anchor="middle" x="183.4" y="-168.73" font-family="Times,serif" font-size="14.00">Deterministic</text>
</g>
<!-- β&#45;&gt;μ -->
<g id="edge1" class="edge">
<title>β&#45;&gt;μ</title>
<path fill="none" stroke="black" d="M183.4,-260.8C183.4,-249.06 183.4,-236.08 183.4,-224.38"/>
<polygon fill="black" stroke="black" points="186.9,-224.08 183.4,-214.08 179.9,-224.08 186.9,-224.08"/>
</g>
<!-- μ&#45;&gt;sales -->
<g id="edge3" class="edge">
<title>μ&#45;&gt;sales</title>
<path fill="none" stroke="black" d="M182.69,-160.89C182.39,-149.98 182.03,-136.89 181.69,-124.35"/>
<polygon fill="black" stroke="black" points="185.18,-123.9 181.4,-114 178.18,-124.09 185.18,-123.9"/>
</g>
</g>
</svg>