<?xml version="1.0" encoding="UTF-8" standalone="no"?>
<!DOCTYPE svg PUBLIC "-//W3C//DTD SVG 1.1//EN"
 "http://www.w3.org/Graphics/SVG/1.1/DTD/svg11.dtd">
<!-- Generated by graphviz version 2.47.1 (0)
 -->
<!-- Pages: 1 -->
<svg width="273pt" height="260pt"
 viewBox="0.00 0.00 273.00 259.91" xmlns="http://www.w3.org/2000/svg" xmlns:xlink="http://www.w3.org/1999/xlink">
<g id="graph0" class="graph" transform="scale(1 1) rotate(0) translate(4 255.91)">
<polygon fill="white" stroke="transparent" points="-4,4 -4,-255.91 269,-255.91 269,4 -4,4"/>
<g id="clust2" class="cluster">
<title>cluster333</title>
<path fill="none" stroke="black" d="M82,-8C82,-8 158,-8 158,-8 164,-8 170,-14 170,-20 170,-20 170,-109.95 170,-109.95 170,-115.95 164,-121.95 158,-121.95 158,-121.95 82,-121.95 82,-121.95 76,-121.95 70,-115.95 70,-109.95 70,-109.95 70,-20 70,-20 70,-14 76,-8 82,-8"/>
<text text-anchor="middle" x="151" y="-15.8" font-family="Times,serif" font-size="14.00">333</text>
</g>
<g id="clust1" class="cluster">
<title>cluster3</title>
<path fill="none" stroke="black" d="M20,-129.95C20,-129.95 245,-129.95 245,-129.95 251,-129.95 257,-135.95 257,-141.95 257,-141.95 257,-231.91 257,-231.91 257,-237.91 251,-243.91 245,-243.91 245,-243.91 20,-243.91 20,-243.91 14,-243.91 8,-237.91 8,-231.91 8,-231.91 8,-141.95 8,-141.95 8,-135.95 14,-129.95 20,-129.95"/>
<text text-anchor="middle" x="245" y="-137.75" font-family="Times,serif" font-size="14.00">3</text>
</g>
<!-- σ -->
<g id="node1" class="node">
<title>σ</title>
<ellipse fill="none" stroke="black" cx="183" cy="-198.43" rx="65.52" ry="37.45"/>
<text text-anchor="middle" x="183" y="-209.73" font-family="Times,serif" font-size="14.00">σ</text>
<text text-anchor="middle" x="183" y="-194.73" font-family="Times,serif" font-size="14.00">~</text>
<text text-anchor="middle" x="183" y="-179.73" font-family="Times,serif" font-size="14.00">HalfStudentT</text>
</g>
<!-- mass -->
<g id="node3" class="node">
<title>mass</title>
<ellipse fill="lightgrey" stroke="black" cx="120" cy="-76.48" rx="41.94" ry="37.45"/>
<text text-anchor="middle" x="120" y="-87.78" font-family="Times,serif" font-size="14.00">mass</text>
<text text-anchor="middle" x="120" y="-72.78" font-family="Times,serif" font-size="14.00">~</text>
<text text-anchor="middle" x="120" y="-57.78" font-family="Times,serif" font-size="14.00">Normal</text>
</g>
<!-- σ&#45;&gt;mass -->
<g id="edge1" class="edge">
<title>σ&#45;&gt;mass</title>
<path fill="none" stroke="black" d="M164.61,-162.41C157.58,-149.02 149.49,-133.62 142.14,-119.63"/>
<polygon fill="black" stroke="black" points="145.19,-117.91 137.44,-110.68 138.99,-121.16 145.19,-117.91"/>
</g>
<!-- μ -->
<g id="node2" class="node">
<title>μ</title>
<ellipse fill="none" stroke="black" cx="58" cy="-198.43" rx="41.94" ry="37.45"/>
<text text-anchor="middle" x="58" y="-209.73" font-family="Times,serif" font-size="14.00">μ</text>
<text text-anchor="middle" x="58" y="-194.73" font-family="Times,serif" font-size="14.00">~</text>
<text text-anchor="middle" x="58" y="-179.73" font-family="Times,serif" font-size="14.00">Normal</text>
</g>
<!-- μ&#45;&gt;mass -->
<g id="edge2" class="edge">
<title>μ&#45;&gt;mass</title>
<path fill="none" stroke="black" d="M75.27,-164.02C82.32,-150.37 90.57,-134.42 98.04,-119.96"/>
<polygon fill="black" stroke="black" points="101.34,-121.2 102.82,-110.71 95.12,-117.99 101.34,-121.2"/>
</g>
</g>
</svg>
